<svg id="eEy1fmvbo3L1" xmlns="http://www.w3.org/2000/svg" xmlns:xlink="http://www.w3.org/1999/xlink" viewBox="0 0 17.69 23.65" shape-rendering="geometricPrecision" text-rendering="geometricPrecision"><g clip-rule="evenodd"><path d="M3.08,0h7.91l6.7,6.99v13.58c0,1.7-1.38,3.08-3.08,3.08h-11.53C1.38,23.65,0,22.27,0,20.57L0,3.08C0,1.38,1.38,0,3.08,0Z" clip-rule="evenodd" fill="#0ac963" fill-rule="evenodd"/><polygon points="10.98,0 10.98,6.93 17.69,6.93" clip-rule="evenodd" fill="#fff" fill-opacity="0.301961" fill-rule="evenodd"/><path d="M11.85,11.82h-6.01c-.45,0-.82.37-.82.82v3.82c0,.45.37.82.82.82h6.01c.45,0,.81-.37.81-.82v-3.82c0-.45-.36-.82-.81-.82ZM7.48,12.85c.49,0,.88.4.88.88c0,.49-.39.89-.88.89s-.89-.4-.89-.89c0-.48.4-.88.89-.88Zm4.64,3.61c0,.15-.12.28-.27.28h-6.01c-.15,0-.27-.13-.27-.28v-.16l1.09-1.09.9.9c.11.11.28.11.39,0l2.26-2.26l1.91,1.91v.7v0Z" clip-rule="evenodd" fill="#fff" fill-rule="evenodd"/></g></svg>