<svg id="e9mbyzMQdhL1" xmlns="http://www.w3.org/2000/svg" xmlns:xlink="http://www.w3.org/1999/xlink" viewBox="0 0 38.89 51.99" shape-rendering="geometricPrecision" text-rendering="geometricPrecision"><g clip-rule="evenodd"><path d="M6.76,0h17.4L38.89,15.36v29.87c0,3.73-3.03,6.76-6.77,6.76h-25.36C3.03,51.99,0,48.96,0,45.23L0,6.76C0,3.03,3.03,0,6.76,0Z" clip-rule="evenodd" fill="#53b1f3" fill-rule="evenodd"/><polygon points="24.14,0 24.14,15.24 38.89,15.24" clip-rule="evenodd" fill="#fff" fill-opacity="0.301961" fill-rule="evenodd"/><path d="M25.73,31.47l-9.59-5.4c-.19-.1-.42-.1-.6.01-.18.1-.3.3-.3.51v10.8c0,.21.12.41.3.52.09.05.2.08.3.08s.21-.02.3-.08l9.59-5.39c.19-.11.31-.31.31-.53c0-.21-.12-.41-.31-.52Z" clip-rule="evenodd" fill="#fff"/></g></svg>