<svg id="e9BqfEQuSUL1" xmlns="http://www.w3.org/2000/svg" xmlns:xlink="http://www.w3.org/1999/xlink" viewBox="0 0 24.33 32.53" shape-rendering="geometricPrecision" text-rendering="geometricPrecision"><g clip-rule="evenodd"><path d="M4.23,0h10.88l9.22,9.61v18.69c0,2.33-1.9,4.23-4.23,4.23h-15.87C1.89,32.53,0,30.63,0,28.3L0,4.23C0,1.89,1.89,0,4.23,0Z" clip-rule="evenodd" fill="#ffb11f" fill-rule="evenodd"/><polygon points="15.1,0 15.1,9.53 24.33,9.53" clip-rule="evenodd" fill="#fff" fill-opacity="0.301961" fill-rule="evenodd"/><path d="M8.96,16.9v-2.22c0-.24-.19-.43-.43-.43h-1.2c-.24,0-.43.19-.43.43v2.22l-.67,1.96c-.19.55-.1,1.16.24,1.63.33.47.88.75,1.46.75s1.12-.28,1.46-.75.43-1.08.24-1.63L8.96,16.9Zm-.28,3.08c-.34.49-1.16.49-1.51,0-.17-.24-.22-.56-.12-.84l.22-.66h1.31l.23.66c.09.28.05.6-.13.84ZM5.27,2.33v1.22c0,.24.19.43.43.43h1.63v1.82h-1.63c-.24,0-.43.19-.43.43v.94c0,.24.19.44.43.44h1.63v1.81h-1.63c-.24,0-.43.19-.43.43v.95c0,.24.19.43.43.43h1.63v1.38c0,.24.2.43.44.43h2.39c.23,0,.43-.19.43-.43v-.95c0-.23-.2-.43-.43-.43h-1.64v-1.81h1.64c.23,0,.43-.19.43-.43v-.95c0-.24-.2-.43-.43-.43h-1.64v-1.81h1.64c.23,0,.43-.2.43-.44v-.94c0-.24-.2-.44-.43-.44h-1.64v-1.66c0,0-3.25.01-3.25.01Z" clip-rule="evenodd" fill="#fff"/></g></svg>