<svg id="eW93w2e7jSF1" xmlns="http://www.w3.org/2000/svg" xmlns:xlink="http://www.w3.org/1999/xlink" viewBox="0 0 20.49 27.4" shape-rendering="geometricPrecision" text-rendering="geometricPrecision"><g clip-rule="evenodd"><path d="M3.56,0h9.17l7.76,8.1v15.73c0,1.97-1.59,3.57-3.56,3.57h-13.37C1.6,27.4,0,25.8,0,23.83L0,3.56C0,1.6,1.6,0,3.56,0Z" clip-rule="evenodd" fill="#00a1e0" fill-rule="evenodd"/><polygon points="12.72,0 12.72,8.03 20.49,8.03" clip-rule="evenodd" fill="#fff" fill-opacity="0.301961" fill-rule="evenodd"/><path d="M12.07,20.44h-.52v-.99h.11c.26,0,.39-.14.39-.42v-1.45c0-.23.06-.41.16-.53.11-.11.27-.21.48-.3-.2-.08-.36-.18-.47-.3s-.17-.29-.17-.52v-1.45c0-.28-.13-.42-.39-.42h-.11v-.99h.52c.31,0,.56.1.76.3s.3.45.3.75v1.55c0,.38.21.57.63.57v1.03c-.42,0-.63.19-.63.58v1.54c0,.3-.1.55-.3.75s-.45.3-.76.3Zm-3.65,0c-.3,0-.56-.1-.76-.3s-.3-.45-.3-.75v-1.54c0-.39-.21-.58-.63-.58v-1.03c.42,0,.63-.19.63-.57v-1.55c0-.3.1-.55.3-.75s.46-.3.76-.3h.53v.99h-.12c-.26,0-.39.14-.39.42v1.45c0,.23-.05.4-.16.52s-.27.22-.48.3c.21.09.37.19.48.3.11.12.16.3.16.53v1.45c0,.28.13.42.39.42h.12v.99h-.53Z" clip-rule="evenodd" fill="#fff"/></g></svg>