<svg id="e90sS1Tnpcj1" xmlns="http://www.w3.org/2000/svg" xmlns:xlink="http://www.w3.org/1999/xlink" viewBox="0 0 24.33 32.53" shape-rendering="geometricPrecision" text-rendering="geometricPrecision"><g clip-rule="evenodd"><path d="M4.23,0h10.88l9.22,9.61v18.69c0,2.33-1.9,4.23-4.23,4.23h-15.87C1.89,32.53,0,30.63,0,28.3L0,4.23C0,1.89,1.89,0,4.23,0Z" clip-rule="evenodd" fill="#251d36" fill-rule="evenodd"/><polygon points="15.1,0 15.1,9.53 24.33,9.53" clip-rule="evenodd" fill="#fff" fill-opacity="0.301961" fill-rule="evenodd"/><path d="M16.45,21.21h-8.57c-.4,0-.72.32-.72.72c0,.39.32.71.72.71h8.57c.4,0,.72-.32.72-.71c0-.4-.32-.72-.72-.72v0Zm0,2.86h-8.57c-.4,0-.72.32-.72.72c0,.39.32.71.72.71h8.57c.4,0,.72-.32.72-.71c0-.4-.32-.72-.72-.72v0ZM12.09,15.5h-4.21c-.4,0-.72.31-.72.71s.32.71.72.71h4.21c.4,0,.72-.31.72-.71s-.32-.71-.72-.71v0Zm4.36,2.85h-8.57c-.4,0-.72.32-.72.72c0,.39.32.71.72.71h8.57c.4,0,.72-.32.72-.71c0-.4-.32-.72-.72-.72v0Z" clip-rule="evenodd" fill="#fff"/></g></svg>