<svg id="eo9VtShWr721" xmlns="http://www.w3.org/2000/svg" xmlns:xlink="http://www.w3.org/1999/xlink" viewBox="0 0 29.93 40.02" shape-rendering="geometricPrecision" text-rendering="geometricPrecision"><g clip-rule="evenodd"><path d="M5.21,0h13.38L29.93,11.82v22.99c0,2.88-2.33,5.21-5.2,5.21h-19.52C2.33,40.02,0,37.69,0,34.81v-29.6C0,2.33,2.33,0,5.21,0Z" clip-rule="evenodd" fill="#251d36" fill-rule="evenodd"/><polygon points="18.58,0 18.58,11.73 29.93,11.73" clip-rule="evenodd" fill="#fff" fill-opacity="0.301961" fill-rule="evenodd"/><path d="M7.56,29.22v-5.69h-2.08v-1.58h6.01v1.58h-2.07v5.69h-1.86Zm10.69,0h-1.95l-1.33-2.23-1.33,2.23h-1.96l2.31-3.88-2.02-3.39h1.95l1.05,1.76l1.04-1.76h1.96l-2.02,3.4l2.3,3.87Zm2.26,0v-5.69h-2.07v-1.58h6.01v1.58h-2.08v5.69h-1.86Z" clip-rule="evenodd" fill="#fff"/></g></svg>